<svg id="Layer_1" data-name="Layer 1" xmlns="http://www.w3.org/2000/svg" viewBox="0 0 32 32"><defs><style>.cls-1{opacity:0;}.cls-2{fill:#5a5b5b;}</style></defs><title>Print</title><g class="cls-1"><path class="cls-2" d="M30.77,1.23V30.77H1.23V1.23H30.77M32,0H0V32H32V0Z"/></g><rect class="cls-2" x="2.5" y="12.25" width="27" height="1"/><path class="cls-2" d="M23,5.25v5H9v-5H23m1-1H8v7H24v-7Z"/><path class="cls-2" d="M25,23.25v5H7v-5H25m1-1H6v7H26v-7Z"/><polygon class="cls-2" points="6 25.25 3 25.25 3 12.66 6.41 9.25 8 9.25 8 8.25 6 8.25 2 12.25 2 26.25 6 26.25 6 25.25"/><polygon class="cls-2" points="26 8.25 24 8.25 24 9.25 25.59 9.25 29 12.66 29 25.25 26 25.25 26 26.25 30 26.25 30 12.25 26 8.25"/><line class="cls-2" x1="5" y1="22.75" x2="27" y2="22.75"/><rect class="cls-2" x="5" y="22.25" width="22" height="1"/><line class="cls-2" x1="7" y1="10.75" x2="25" y2="10.75"/><polygon class="cls-2" points="26 11.25 6 11.25 7 10.25 25 10.25 26 11.25"/><path class="cls-2" d="M26.5,16.5a.75.75,0,1,1,.75-.75A.75.75,0,0,1,26.5,16.5Zm0-1a.25.25,0,0,0-.25.25c0,.28.5.28.5,0A.25.25,0,0,0,26.5,15.5Z"/><rect class="cls-2" x="5" y="15.25" width="6" height="1"/></svg>